C:\GBW_MyPrograms\KinderuniversiteitApp\Resultaten\Ellis_v10102025\Kleuter\Kleuter_v3.mot
version=1
nRows=9
nColumns=29
inDegrees=yes
endheader
                time	         pelvis_tilt	           pelvis_tx	           pelvis_ty	       hip_flexion_l	       hip_flexion_r	        knee_angle_l	        knee_angle_r	       ankle_angle_l	       ankle_angle_r	    lumbar_extension	hamstrings_r/activation	bifemsh_r/activation	glut_max_r/activation	iliopsoas_r/activation	rect_fem_r/activation	  vasti_r/activation	gastroc_r/activation	 soleus_r/activation	tib_ant_r/activation	hamstrings_l/activation	bifemsh_l/activation	glut_max_l/activation	iliopsoas_l/activation	rect_fem_l/activation	  vasti_l/activation	gastroc_l/activation	 soleus_l/activation	tib_ant_l/activation	
          0.45358735	         -0.59111526	          0.24040130	          0.47501561	         21.52558671	        -12.86515571	        -22.33316043	        -11.49787555	         -8.04888607	        -16.12612996	         -8.69132701	          0.05000026	          0.05000737	          0.05000054	          0.22045747	          0.09956091	          0.08616234	          0.23751551	          0.22006500	          0.05000010	          0.05755980	          0.06283919	          0.05000415	          0.11390488	          0.06381048	          0.05000017	          0.05435631	          0.05000039	          0.08853372	
          0.46265910	         -0.59835846	          0.24625536	          0.47411409	         21.31435464	        -13.15878269	        -22.02711895	        -12.21172276	         -8.47161137	        -16.70910742	         -8.66965382	          0.05000014	          0.05000064	          0.05000033	          0.20155078	          0.08649245	          0.08052856	          0.22581253	          0.24036204	          0.05000003	          0.05000015	          0.06989145	          0.05000011	          0.09894552	          0.06308470	          0.05000013	          0.05489412	          0.05000020	          0.08600572	
          0.47173085	         -0.60499672	          0.25229987	          0.47323288	         20.98427954	        -13.37163463	        -22.00963308	        -13.09604595	         -8.81552771	        -17.38358494	         -8.63534491	          0.05000063	          0.05116240	          0.05000004	          0.18124264	          0.07513282	          0.06995213	          0.20340270	          0.25757441	          0.05000004	          0.05000014	          0.08072431	          0.05000005	          0.08595031	          0.05552102	          0.05755974	          0.06507785	          0.05000020	          0.08380554	
          0.48080259	         -0.61023500	          0.25853078	          0.47236333	         20.52151553	        -13.49685293	        -22.31106180	        -14.16809532	         -9.01973818	        -18.12624118	         -8.58420429	          0.05000022	          0.05000224	          0.05756180	          0.16731509	          0.06767812	          0.06796238	          0.17668823	          0.22988855	          0.05000000	          0.07655232	          0.14387859	          0.05000004	          0.07466180	          0.05000012	          0.05000001	          0.09282350	          0.10395736	          0.07279871	
          0.48987434	         -0.61431636	          0.26488354	          0.47152486	         19.99098064	        -13.54452412	        -22.72896423	        -15.40500895	         -9.03195671	        -18.88404663	         -8.52158257	          0.05000025	          0.05000187	          0.05000178	          0.14534085	          0.06052219	          0.06269718	          0.15348236	          0.19969545	          0.05000003	          0.07620658	          0.12498194	          0.09739449	          0.06485590	          0.05000024	          0.05000111	          0.11544946	          0.16168925	          0.06323748	
          0.49894609	         -0.61801769	          0.27125776	          0.47080570	         19.45097285	        -13.50562258	        -23.17867735	        -16.79627114	         -8.85902102	        -19.64484019	         -8.45615353	          0.05000038	          0.05000087	          0.05000029	          0.14144247	          0.05447965	          0.05926511	          0.13332430	          0.17346786	          0.07240499	          0.08458900	          0.10856716	          0.13987778	          0.05633799	          0.05000022	          0.06625419	          0.13100317	          0.18748430	          0.05493201	
          0.50801783	         -0.62248731	          0.27755905	          0.47028141	         18.90423979	        -13.38321072	        -23.62139425	        -18.32378078	         -8.56845356	        -20.30631147	         -8.39525739	          0.05000010	          0.05000054	          0.05425400	          0.15036984	          0.05000086	          0.05263356	          0.11581377	          0.15068495	          0.10384083	          0.09316083	          0.09430828	          0.18147930	          0.05000010	          0.05000013	          0.07649130	          0.13599799	          0.20724317	          0.05000004	
          0.51708958	         -0.62860442	          0.28370909	          0.46997510	         18.34649965	        -13.18339787	        -24.02149433	        -19.95134300	         -8.22859274	        -20.76933436	         -8.34487744	          0.09940376	          0.05663257	          0.05361574	          0.16384916	          0.05000018	          0.05000003	          0.10060312	          0.13089430	          0.12117464	          0.09453872	          0.08192214	          0.20794233	          0.05000007	          0.05000011	          0.08537531	          0.13368820	          0.22108267	          0.05000012	
          0.52616133	         -0.63668919	          0.28965812	          0.46988830	         17.77540930	        -12.90766333	        -24.35490796	        -21.61947478	         -7.88352759	        -20.97726360	         -8.30804191	          0.08762068	          0.14141071	          0.05786639	          0.16976524	          0.05000011	          0.05000004	          0.09708780	          0.11370293	          0.12900346	          0.10277820	          0.07116282	          0.22342781	          0.05000005	          0.05000008	          0.08762138	          0.11613010	          0.23455363	          0.05000010	
